<?xml version="1.0" encoding="UTF-8"?>
<!-- Generated by Pixelmator Pro 3.5.5 -->
<svg width="3508" height="1000" viewBox="0 0 3508 1000" xmlns="http://www.w3.org/2000/svg">
    <path id="chicken" fill="#e76f34" fill-rule="evenodd" stroke="none" d="M 1966.583984 785.775391 C 1940.351196 785.775391 1915.74353 781.504639 1892.759766 772.960938 C 1869.776001 764.417236 1849.68042 751.721741 1832.472656 734.875 C 1815.264893 718.02832 1801.66748 697.089966 1791.679688 672.060547 C 1781.692017 647.031128 1776.697266 617.911377 1776.697266 584.699219 C 1776.697266 559.6698 1780.969971 535.964111 1789.513672 513.582031 C 1798.057373 491.199951 1810.331543 471.585022 1826.335938 454.738281 C 1842.340454 437.891541 1861.713867 424.535339 1884.457031 414.667969 C 1907.200073 404.800537 1932.889771 399.867188 1961.529297 399.867188 C 1986.318115 399.867188 2009.000977 403.718567 2029.578125 411.419922 C 2050.155029 419.121277 2067.843506 430.311462 2082.644531 444.992188 C 2097.445557 459.672913 2108.997803 477.661865 2117.300781 498.960938 C 2125.60376 520.26001 2129.755859 544.387024 2129.755859 571.341797 C 2129.755859 579.765137 2129.395752 586.625244 2128.673828 591.919922 C 2127.95166 597.2146 2126.626709 601.426025 2124.701172 604.554688 C 2122.775879 607.68335 2120.19043 609.849365 2116.941406 611.052734 C 2113.692383 612.256104 2109.540283 612.857422 2104.486328 612.857422 L 1888.607422 612.857422 C 1892.217407 644.144226 1901.724243 666.827148 1917.126953 680.90625 C 1932.529785 694.985352 1952.383911 702.023438 1976.691406 702.023438 C 1989.6875 702.023438 2000.879517 700.45874 2010.265625 697.330078 C 2019.651611 694.201416 2028.015137 690.712036 2035.355469 686.861328 C 2042.695801 683.01062 2049.433105 679.52124 2055.570313 676.392578 C 2061.707275 673.263916 2068.145996 671.699219 2074.884766 671.699219 C 2083.789551 671.699219 2090.526855 674.949219 2095.099609 681.447266 L 2127.589844 721.517578 C 2116.037598 734.754272 2103.583496 745.525085 2090.226563 753.828125 C 2076.869385 762.131165 2063.151367 768.629272 2049.072266 773.322266 C 2034.993164 778.015259 2020.915039 781.263367 2006.835938 783.068359 C 1992.756958 784.873352 1979.339355 785.775391 1966.583984 785.775391 Z M 1450.353516 780 L 1450.353516 239.582031 L 1562.263672 239.582031 L 1562.263672 542.462891 L 1578.869141 542.462891 C 1585.848511 542.462891 1591.203247 541.499512 1594.933594 539.574219 C 1598.66394 537.648865 1602.2146 534.159485 1605.583984 529.105469 L 1676.339844 423.693359 C 1680.431274 417.435974 1685.305298 412.862671 1690.960938 409.974609 C 1696.616699 407.086609 1703.775513 405.642578 1712.439453 405.642578 L 1814.964844 405.642578 L 1718.216797 538.851563 C 1713.644165 545.108948 1708.649414 550.643677 1703.234375 555.457031 C 1697.819336 560.270386 1691.984009 564.602417 1685.726563 568.453125 C 1696.556641 576.635864 1705.942749 587.465942 1713.884766 600.943359 L 1819.296875 780 L 1718.216797 780 C 1709.793457 780 1702.512085 778.615356 1696.375 775.847656 C 1690.238037 773.079956 1685.245117 768.207886 1681.394531 761.228516 L 1610.638672 628.740234 C 1607.269409 622.723511 1603.778076 618.812805 1600.167969 617.007813 C 1596.557983 615.202759 1591.143921 614.300781 1583.923828 614.300781 L 1562.263672 614.300781 L 1562.263672 780 L 1450.353516 780 Z M 2150.693359 780 L 2150.693359 405.642578 L 2220.005859 405.642578 C 2226.985107 405.642578 2232.820801 407.207275 2237.513672 410.335938 C 2242.206787 413.4646 2245.516113 418.156738 2247.441406 424.414063 L 2253.939453 446.074219 C 2261.159668 439.33551 2268.62085 433.078796 2276.322266 427.302734 C 2284.023682 421.526733 2292.266357 416.652649 2301.050781 412.681641 C 2309.835205 408.710632 2319.341797 405.583191 2329.570313 403.296875 C 2339.798584 401.010498 2350.927734 399.867188 2362.960938 399.867188 C 2383.417725 399.867188 2401.529297 403.415955 2417.292969 410.515625 C 2433.056641 417.615356 2446.353516 427.48407 2457.183594 440.119141 C 2468.013428 452.75415 2476.195068 467.795715 2481.730469 485.244141 C 2487.265869 502.692505 2490.033203 521.644775 2490.033203 542.101563 L 2490.033203 780 L 2378.125 780 L 2378.125 542.101563 C 2378.125 523.810791 2373.911621 509.550629 2365.488281 499.322266 C 2357.064941 489.093872 2344.672119 483.980469 2328.306641 483.980469 C 2316.032715 483.980469 2304.480469 486.627197 2293.650391 491.921875 C 2282.820313 497.216583 2272.470947 504.315979 2262.603516 513.220703 L 2262.603516 780 L 2150.693359 780 Z M 1889.691406 547.876953 L 2029.398438 547.876953 C 2029.398438 538.972229 2028.255127 530.308105 2025.96875 521.884766 C 2023.682373 513.461426 2019.951782 505.940613 2014.777344 499.322266 C 2009.603027 492.703888 2002.804199 487.349182 1994.380859 483.257813 C 1985.95752 479.166443 1975.728638 477.121094 1963.695313 477.121094 C 1942.275879 477.121094 1925.551025 483.197815 1913.517578 495.351563 C 1901.484253 507.50528 1893.541992 525.01355 1889.691406 547.876953 Z M 1412.810059 494.449005 C 1409.440674 498.540344 1406.19165 501.789307 1403.062988 504.196014 C 1399.934326 506.602692 1395.482056 507.806 1389.706055 507.806 C 1384.170654 507.806 1379.17688 506.482361 1374.724487 503.834991 C 1370.272095 501.187653 1365.27832 498.239502 1359.743042 494.990509 C 1354.207642 491.741486 1347.709717 488.793335 1340.249023 486.145996 C 1332.78833 483.498657 1323.522705 482.174988 1312.452026 482.174988 C 1298.733887 482.174988 1286.881226 484.701965 1276.893555 489.756012 C 1266.905762 494.810028 1258.663086 502.029968 1252.165039 511.415985 C 1245.666992 520.802002 1240.853638 532.293762 1237.724976 545.891479 C 1234.596313 559.489258 1233.031982 574.831543 1233.031982 591.919006 C 1233.031982 627.778503 1239.95105 655.334595 1253.789551 674.588013 C 1267.62793 693.841431 1286.700562 703.468018 1311.008057 703.468018 C 1324.004028 703.468018 1334.29248 701.843506 1341.873535 698.594482 C 1349.45459 695.345459 1355.892334 691.735535 1361.187012 687.764526 C 1366.481689 683.793457 1371.355103 680.123352 1375.807495 676.754028 C 1380.259888 673.384644 1385.855347 671.700012 1392.593994 671.700012 C 1401.498657 671.700012 1408.237305 674.948975 1412.810059 681.447021 L 1445.300049 721.518005 C 1433.747925 734.754761 1421.59436 745.524475 1408.838989 753.827515 C 1396.083618 762.130554 1383.027588 768.628479 1369.670532 773.321533 C 1356.313477 778.014526 1342.896362 781.263489 1329.418945 783.068481 C 1315.94165 784.873535 1302.825439 785.776001 1290.069946 785.776001 C 1267.206543 785.776001 1245.366211 781.444031 1224.548462 772.780029 C 1203.730713 764.115967 1185.440186 751.54126 1169.676514 735.055542 C 1153.91272 718.569763 1141.398193 698.293823 1132.132446 674.22699 C 1122.866821 650.160217 1118.234009 622.724487 1118.234009 591.919006 C 1118.234009 564.964233 1122.265137 539.754639 1130.327515 516.28949 C 1138.389893 492.824371 1150.302734 472.488281 1166.066528 455.280518 C 1181.8302 438.072754 1201.324097 424.5354 1224.548462 414.66803 C 1247.772949 404.800598 1274.667236 399.867004 1305.232056 399.867004 C 1334.593506 399.867004 1360.344604 404.559937 1382.485962 413.945984 C 1404.627441 423.332031 1424.602539 437.049927 1442.411987 455.099976 Z M 1095.852051 405.643005 L 1095.852051 780 L 983.942017 780 L 983.942017 405.643005 Z M 1108.848022 303.119019 C 1108.848022 312.023682 1107.042969 320.38678 1103.432983 328.208496 C 1099.822998 336.030212 1094.889404 342.88916 1088.631958 348.785522 C 1082.374634 354.681885 1075.094482 359.374817 1066.791504 362.864502 C 1058.488403 366.354187 1049.644043 368.098999 1040.258057 368.098999 C 1031.112671 368.098999 1022.569031 366.354187 1014.627014 362.864502 C 1006.684937 359.374817 999.645508 354.681885 993.508484 348.785522 C 987.37146 342.88916 982.558167 336.030212 979.068481 328.208496 C 975.578796 320.38678 973.833984 312.023682 973.833984 303.119019 C 973.833984 293.973633 975.578796 285.430054 979.068481 277.487976 C 982.558167 269.545959 987.37146 262.566711 993.508484 256.549988 C 999.645508 250.533325 1006.684937 245.840332 1014.627014 242.471008 C 1022.569031 239.101624 1031.112671 237.416992 1040.258057 237.416992 C 1049.644043 237.416992 1058.488403 239.101624 1066.791504 242.471008 C 1075.094482 245.840332 1082.374634 250.533325 1088.631958 256.549988 C 1094.889404 262.566711 1099.822998 269.545959 1103.432983 277.487976 C 1107.042969 285.430054 1108.848022 293.973633 1108.848022 303.119019 Z M 604.892029 780 L 604.892029 239.583008 L 716.802002 239.583008 L 716.802002 438.494019 C 730.279419 426.941956 744.89978 417.616211 760.663513 410.516479 C 776.427246 403.416809 795.259216 399.867004 817.159973 399.867004 C 837.61676 399.867004 855.726746 403.416809 871.490479 410.516479 C 887.254272 417.616211 900.550964 427.483459 911.380981 440.11853 C 922.21106 452.75354 930.393616 467.795105 935.929016 485.24353 C 941.464355 502.691925 944.231995 521.644226 944.231995 542.101013 L 944.231995 780 L 832.322021 780 L 832.322021 542.101013 C 832.322021 523.810242 828.110352 509.550873 819.687012 499.32251 C 811.263611 489.094116 798.869385 483.97998 782.504028 483.97998 C 770.229919 483.97998 758.67804 486.627319 747.848022 491.921997 C 737.017944 497.216705 726.669373 504.316284 716.802002 513.221008 L 716.802002 780 Z M 567.348022 494.449005 C 563.978638 498.540344 560.729675 501.789307 557.601013 504.196014 C 554.47229 506.602692 550.02002 507.806 544.244019 507.806 C 538.708618 507.806 533.714844 506.482361 529.262512 503.834991 C 524.81012 501.187653 519.816345 498.239502 514.281006 494.990509 C 508.745636 491.741486 502.247711 488.793335 494.786987 486.145996 C 487.326294 483.498657 478.06073 482.174988 466.98999 482.174988 C 453.271942 482.174988 441.41922 484.701965 431.431488 489.756012 C 421.443787 494.810028 413.201019 502.029968 406.703003 511.415985 C 400.204956 520.802002 395.391693 532.293762 392.263 545.891479 C 389.134308 559.489258 387.570007 574.831543 387.570007 591.919006 C 387.570007 627.778503 394.489105 655.334595 408.327515 674.588013 C 422.165894 693.841431 441.238556 703.468018 465.54599 703.468018 C 478.542053 703.468018 488.830475 701.843506 496.411499 698.594482 C 503.992523 695.345459 510.430298 691.735535 515.724976 687.764526 C 521.019714 683.793457 525.893127 680.123352 530.34552 676.754028 C 534.797852 673.384644 540.393311 671.700012 547.132019 671.700012 C 556.036682 671.700012 562.77533 674.948975 567.348022 681.447021 L 599.838013 721.518005 C 588.28595 734.754761 576.132385 745.524475 563.377014 753.827515 C 550.621582 762.130554 537.565552 768.628479 524.208496 773.321533 C 510.85144 778.014526 497.434387 781.263489 483.957001 783.068481 C 470.479614 784.873535 457.363403 785.776001 444.608002 785.776001 C 421.744537 785.776001 399.904266 781.444031 379.086487 772.780029 C 358.268738 764.115967 339.978241 751.54126 324.214508 735.055542 C 308.450745 718.569763 295.936218 698.293823 286.670502 674.22699 C 277.404785 650.160217 272.772003 622.724487 272.772003 591.919006 C 272.772003 564.964233 276.803131 539.754639 284.865509 516.28949 C 292.927887 492.824371 304.840759 472.488281 320.604492 455.280518 C 336.368256 438.072754 355.862061 424.5354 379.086487 414.66803 C 402.310944 404.800598 429.20517 399.867004 459.769989 399.867004 C 489.13147 399.867004 514.882568 404.559937 537.023987 413.945984 C 559.165466 423.332031 579.140564 437.049927 596.950012 455.099976 Z"/>
    <path id="path1" fill="#e0062b" fill-rule="evenodd" stroke="none" d="M 3274.649902 558.346008 L 2982.23999 711.049011 L 2982.23999 633.43396 C 2982.23999 627.898682 2983.684082 622.844727 2986.572021 618.271973 C 2989.459961 613.699341 2994.032715 609.728394 3000.290039 606.359009 L 3102.813965 550.765015 C 3108.830811 547.39563 3115.388916 544.688171 3122.488525 542.642456 C 3129.588135 540.596802 3136.988525 538.611328 3144.689941 536.686035 C 3136.988525 534.76062 3129.588135 532.654846 3122.488525 530.36853 C 3115.388916 528.082153 3108.830811 525.254395 3102.813965 521.88501 L 3000.290039 466.651978 C 2994.032715 463.282654 2989.459961 459.251526 2986.572021 454.558472 C 2983.684082 449.865479 2982.23999 444.751343 2982.23999 439.216003 L 2982.23999 361.601013 L 3274.649902 514.665039 Z M 2776.469971 775.667969 C 2773.822754 782.166016 2770.393066 787.941956 2766.181396 792.995972 C 2761.969727 798.050049 2757.276855 802.261658 2752.102539 805.630981 C 2746.928223 809.000366 2741.392822 811.527344 2735.496582 813.212036 C 2729.600098 814.896667 2723.763916 815.739014 2717.988037 815.739014 L 2670.335938 815.739014 L 2875.384033 277.487976 C 2880.197266 265.213928 2887.537598 255.828003 2897.405029 249.330017 C 2907.272461 242.83197 2918.703857 239.583008 2931.699951 239.583008 L 2979.352051 239.583008 Z"/>
</svg>
